Coordinates
version=1
nRows=8
nColumns=36
inDegrees=yes

Units are S.I. units (second, meters, Newtons, ...)
If the header above contains a line with 'inDegrees', this indicates whether rotational values are in degrees (yes) or radians (no).

endheader
time	pelvis_tilt	pelvis_list	pelvis_rotation	pelvis_tx	pelvis_ty	pelvis_tz	hip_flexion_r	hip_adduction_r	hip_rotation_r	knee_angle_r	knee_angle_r_beta	ankle_angle_r	subtalar_angle_r	mtp_angle_r	hip_flexion_l	hip_adduction_l	hip_rotation_l	knee_angle_l	knee_angle_l_beta	ankle_angle_l	subtalar_angle_l	mtp_angle_l	lumbar_extension	lumbar_bending	lumbar_rotation	arm_flex_r	arm_add_r	arm_rot_r	elbow_flex_r	pro_sup_r	arm_flex_l	arm_add_l	arm_rot_l	elbow_flex_l	pro_sup_l
      1.05000000	     -0.85441886	     -0.21394483	     -3.17084860	      1.05921149	      0.95112878	     -0.27414174	     23.09788094	      1.50003663	      0.65545433	      4.03731736	      0.07046448	     -0.89398968	     -9.05188549	     -7.41757031	    -13.08543632	      3.20778813	     -1.36031063	      1.92980713	      0.03368149	     10.54227731	     -5.53434048	     -7.41757031	     -9.76123801	     -6.09087029	     -1.53032497	      0.12083503	     -5.52980156	     -6.95566904	     31.78531873	    110.91998051	     11.64766648	    -10.46016661	     10.33994319	     30.26522909	    105.88945229
      1.06000000	     -0.92763932	     -0.12317637	     -3.09607384	      1.07080075	      0.94820845	     -0.27506745	     23.27010538	      1.39348675	      1.15475140	      2.04715226	      0.03572955	     -0.48979652	     -8.11160103	     -7.41846491	    -13.82785407	      3.40361539	     -1.30139267	      1.91115210	      0.03335590	     10.94643288	     -5.52052982	     -7.41846491	     -9.63217807	     -5.59725371	     -1.72256066	     -0.02759831	     -5.65640550	     -7.26166278	     31.57140926	    110.83150116	     11.88469750	    -10.51284352	     10.71695969	     30.74924479	    105.90697930
      1.07000000	     -0.75397266	     -0.02126990	     -3.06299084	      1.08251734	      0.94553352	     -0.27582926	     23.53209296	      1.26064580	      0.51151720	      1.07508132	      0.01876371	      1.03579901	     -5.72061457	     -7.42234365	    -14.85053450	      3.60489857	     -1.60399861	      1.88956328	      0.03297910	     11.58303765	     -4.89941858	     -7.42234365	     -9.81533122	     -5.13622357	     -1.79120401	     -0.20515876	     -5.58954307	     -8.58536516	     31.61002577	    110.82967215	     12.26397551	    -10.82629494	     12.21861871	     31.28309912	    106.01458810
      1.08000000	     -0.83642710	      0.16657479	     -3.07564908	      1.09405666	      0.94245163	     -0.27655395	     24.23033818	      1.12128244	      0.39061869	      0.67275788	      0.01174184	      1.28569434	     -5.64871947	     -7.42255342	    -15.49618931	      3.90100261	     -1.73979907	      2.00319450	      0.03496234	     11.70931151	     -4.92328495	     -7.42255342	     -9.71366083	     -4.75894240	     -1.95495466	     -0.29555449	     -5.80496088	     -8.69097944	     31.53884769	    110.75681895	     12.54969597	    -10.79980568	     12.28544030	     31.47469096	    105.99513720
      1.09000000	     -0.65314618	      0.16701855	     -2.99204384	      1.10633453	      0.93979877	     -0.27714314	     24.53070373	      1.08087669	     -0.75091579	      0.56531829	      0.00986667	      3.71582674	     -2.35436812	     -7.43000855	    -16.49940547	      3.93015028	     -2.08048606	      2.14393122	      0.03741866	     12.64292733	     -3.92182084	     -7.43000855	     -9.85214885	     -4.20317685	     -1.74097173	     -0.76424802	     -5.60554912	    -10.69643572	     31.76702103	    110.88125513	     13.05917398	    -11.00660495	     14.28354434	     31.72077040	    106.00258488
      1.10000000	     -0.57753840	      0.16917138	     -2.94258593	      1.11853606	      0.93705397	     -0.27758269	     24.82610936	      1.12763799	     -0.73741680	      0.51662764	      0.00901685	      4.33203927	     -2.23487656	     -7.43092058	    -17.35078359	      3.96305167	     -2.15253746	      2.31379015	      0.04038326	     12.89354060	     -3.85748266	     -7.43092058	     -9.91939975	     -3.65203283	     -1.86947584	     -0.89458076	     -5.70590708	    -11.04464281	     31.57369293	    110.84626010	     13.20468920	    -11.06441710	     14.56495504	     32.14646845	    106.04811620
      1.11000000	     -0.56781331	      0.19625286	     -2.86895800	      1.13105289	      0.93435147	     -0.27798076	     25.07050989	      1.12884998	     -0.57439665	      0.56795884	      0.00991275	      4.47492513	     -2.21606115	     -7.43108875	    -18.09350742	      3.99670891	     -2.13618311	      2.56652669	      0.04479434	     12.89306016	     -3.81053812	     -7.43108875	     -9.82783504	     -3.14722845	     -2.02578666	     -1.08318472	     -5.81090219	    -11.16910628	     31.45790325	    110.82468650	     13.31525561	    -11.03188629	     14.63465553	     32.29481611	    106.06740501
      1.12000000	     -0.29387476	     -0.05755601	     -2.78249657	      1.14391778	      0.93213098	     -0.27810796	     24.80031447	      1.44387609	     -0.21748188	      0.64402479	      0.01124035	      5.13002671	     -2.52308724	     -7.43182145	    -19.11904856	      3.69804214	     -2.26776249	      2.90647118	      0.05072749	     13.11232194	     -3.67581546	     -7.43182145	    -10.08645038	     -2.34659477	     -2.11851369	     -1.18477983	     -5.84431772	    -11.76329757	     31.27542583	    110.72870911	     13.36649188	    -11.06646702	     14.93636038	     32.77725863	    106.14767469
